<?xml version="1.0" encoding="UTF-8" standalone="no"?>
<svg
   xmlns:dc="http://purl.org/dc/elements/1.1/"
   xmlns:cc="http://creativecommons.org/ns#"
   xmlns:rdf="http://www.w3.org/1999/02/22-rdf-syntax-ns#"
   xmlns:svg="http://www.w3.org/2000/svg"
   xmlns="http://www.w3.org/2000/svg"
   xmlns:sodipodi="http://sodipodi.sourceforge.net/DTD/sodipodi-0.dtd"
   xmlns:inkscape="http://www.inkscape.org/namespaces/inkscape"
   version="1.1"
   viewBox="0 0 48 48"
   id="svg2"
   inkscape:version="0.91 r13725"
   sodipodi:docname="document-new.svg"
   width="48"
   height="48">
  <metadata
     id="metadata12">
    <rdf:RDF>
      <cc:Work
         rdf:about="">
        <dc:format>image/svg+xml</dc:format>
        <dc:type
           rdf:resource="http://purl.org/dc/dcmitype/StillImage" />
        <dc:title></dc:title>
        <cc:license
           rdf:resource="http://creativecommons.org/publicdomain/zero/1.0/" />
      </cc:Work>
      <cc:License
         rdf:about="http://creativecommons.org/publicdomain/zero/1.0/">
        <cc:permits
           rdf:resource="http://creativecommons.org/ns#Reproduction" />
        <cc:permits
           rdf:resource="http://creativecommons.org/ns#Distribution" />
        <cc:permits
           rdf:resource="http://creativecommons.org/ns#DerivativeWorks" />
      </cc:License>
    </rdf:RDF>
  </metadata>
  <defs
     id="defs10" />
  <sodipodi:namedview
     pagecolor="#ffffff"
     bordercolor="#666666"
     borderopacity="1"
     objecttolerance="10"
     gridtolerance="10"
     guidetolerance="10"
     inkscape:pageopacity="0"
     inkscape:pageshadow="2"
     inkscape:window-width="1076"
     inkscape:window-height="873"
     id="namedview8"
     showgrid="false"
     showguides="true"
     inkscape:guide-bbox="true"
     inkscape:object-nodes="true"
     inkscape:object-paths="false"
     inkscape:snap-smooth-nodes="true"
     inkscape:zoom="5.2149125"
     inkscape:cx="30.209789"
     inkscape:cy="38.268628"
     inkscape:window-x="0"
     inkscape:window-y="24"
     inkscape:window-maximized="0"
     inkscape:current-layer="svg2" />
  <path
     d="m 33,33 0,4 -4,0 0,2 4,0 0,4 2,0 0,-4 4,0 0,-2 -4,0 0,-4 z"
     id="path6"
     style="fill:#808080"
     inkscape:connector-curvature="0"
     sodipodi:nodetypes="ccccccccccccc" />
  <path
     style="fill:none;fill-rule:evenodd;stroke:#808080;stroke-width:2;stroke-linecap:butt;stroke-linejoin:miter;stroke-miterlimit:4;stroke-dasharray:none;stroke-opacity:1"
     d="M 9.4314845,3 C 8.0875954,2.9993592 6.9979965,4.0801811 6.9986429,5.4132461 l 0,37.1735049 C 6.9979947,43.919816 8.0875942,45.000641 9.4314845,45 L 38.567155,45 C 39.911047,45.000644 41.000647,43.919819 41,42.586751 l 0,-26.838295 c -3.32e-4,-0.639884 -0.25697,-1.253415 -0.713429,-1.705563 L 29.867441,3.7076826 C 29.41162,3.2548964 28.793106,3.0003262 28.148026,3 Z"
     id="path4146"
     inkscape:connector-curvature="0"
     sodipodi:nodetypes="ccccccccccc" />
  <path
     id="path4742"
     style="opacity:1;fill:#808080;fill-opacity:0.33000004;stroke:#808080;stroke-width:2;stroke-linecap:round;stroke-linejoin:round;stroke-miterlimit:4;stroke-dasharray:none;stroke-dashoffset:0;stroke-opacity:1"
     d="M 40.286571,14.042893 29.867441,3.7076826 C 29.41162,3.2548964 28.793106,3.0003262 28.148026,3 l 0,10.592181 c 0,1.194576 0.961698,2.156275 2.156275,2.156275 l 10.695699,0 c -3.32e-4,-0.639884 -0.25697,-1.253415 -0.713429,-1.705563 z"
     inkscape:connector-curvature="0"
     sodipodi:nodetypes="cccsscc" />
  <path
     sodipodi:nodetypes="ccccccccc"
     inkscape:connector-curvature="0"
     style="fill:#808080"
     id="path4747"
     d="M 32.585786,38 30,42 34,39.414214 38,42 35.414214,38 38,34 34,36.585786 30,34 Z" />
</svg>
